M48
; DRILL file {KiCad 8.0.8} date 2025-03-17T11:11:09+0100
; FORMAT={-:-/ absolute / metric / decimal}
; #@! TF.CreationDate,2025-03-17T11:11:09+01:00
; #@! TF.GenerationSoftware,Kicad,Pcbnew,8.0.8
; #@! TF.FileFunction,MixedPlating,1,2
FMAT,2
METRIC
; #@! TA.AperFunction,Plated,PTH,ComponentDrill
T1C0.762
; #@! TA.AperFunction,Plated,PTH,ViaDrill
T2C0.800
; #@! TA.AperFunction,Plated,PTH,ComponentDrill
T3C0.800
; #@! TA.AperFunction,Plated,PTH,ComponentDrill
T4C1.000
; #@! TA.AperFunction,Plated,PTH,ComponentDrill
T5C1.016
; #@! TA.AperFunction,NonPlated,NPTH,ComponentDrill
T6C2.200
; #@! TA.AperFunction,NonPlated,NPTH,ComponentDrill
T7C3.200
%
G90
G05
T1
X112.0Y-103.0
X112.0Y-105.0
X112.0Y-107.0
X112.0Y-109.0
X140.0Y-64.5
X140.0Y-66.5
X140.0Y-68.5
X140.0Y-70.5
X140.0Y-105.0
X140.0Y-107.0
X140.0Y-109.0
X140.0Y-111.0
X146.5Y-105.0
X146.5Y-107.0
X146.5Y-109.0
X146.5Y-111.0
X147.0Y-64.0
X147.0Y-66.0
X147.0Y-68.0
X147.0Y-70.0
X153.0Y-105.0
X153.0Y-107.0
X153.0Y-109.0
X153.0Y-111.0
X153.5Y-64.0
X153.5Y-66.0
X153.5Y-68.0
X153.5Y-70.0
X159.5Y-105.0
X159.5Y-107.0
X159.5Y-109.0
X159.5Y-111.0
T2
X127.5Y-73.5
X149.5Y-73.5
T3
X117.69Y-103.0
X117.69Y-107.0
X125.31Y-103.0
X125.31Y-107.0
T4
X116.5Y-64.0
X116.5Y-66.54
X116.5Y-69.08
X116.5Y-71.62
T5
X124.885Y-77.09
X124.885Y-97.41
X127.425Y-77.09
X127.425Y-97.41
X129.965Y-77.09
X129.965Y-97.41
X132.505Y-77.09
X132.505Y-97.41
X135.045Y-77.09
X135.045Y-97.41
X137.585Y-77.09
X137.585Y-97.41
X140.125Y-77.09
X140.125Y-97.41
X142.665Y-77.09
X142.665Y-97.41
X145.205Y-77.09
X145.205Y-97.41
X147.745Y-77.09
X147.745Y-97.41
X150.285Y-77.09
X150.285Y-97.41
X152.825Y-77.09
X152.825Y-97.41
X155.365Y-77.09
X155.365Y-97.41
X157.905Y-77.09
X157.905Y-97.41
T6
X105.0Y-77.0
X105.0Y-97.5
X162.0Y-77.0
X162.0Y-97.5
T7
X104.0Y-62.5
X104.0Y-113.0
X168.5Y-62.5
X168.5Y-113.0
M30
